<svg xmlns="http://www.w3.org/2000/svg" viewBox="0 0 512 512">
  <defs>
    <linearGradient id="bg" x1="0%" y1="0%" x2="0%" y2="100%">
      <stop offset="0%" style="stop-color:#fafafa"/>
      <stop offset="100%" style="stop-color:#f5f5f5"/>
    </linearGradient>
  </defs>

  <!-- Background with rounded corners -->
  <rect width="512" height="512" rx="80" ry="80" fill="url(#bg)"/>

  <!-- M letter -->
  <path d="M128 400 L128 112 L256 280 L384 112 L384 400 L336 400 L336 220 L256 340 L176 220 L176 400 Z" fill="#333333"/>

  <!-- Heart -->
  <path d="M340 260
    C340 240, 360 220, 380 220
    C400 220, 420 240, 420 260
    C420 300, 380 340, 340 380
    C300 340, 260 300, 260 260
    C260 240, 280 220, 300 220
    C320 220, 340 240, 340 260 Z"
    fill="#E91E8C"/>
</svg>
